{"asset":{"version":"2.0","generator":"Blockbench 4.12.4 glTF exporter"},"scenes":[{"nodes":[32],"name":"blockbench_export"}],"scene":0,"nodes":[{"translation":[0.1875,0.6875,-0.125],"name":"cube","mesh":0},{"translation":[-0.15625,0.6875,-0.09375],"name":"cube","mesh":1},{"translation":[0,0,0.03125],"name":"cube","mesh":2},{"translation":[0,0,0.09375],"name":"cube","mesh":3},{"translation":[0,0,0.09375],"name":"cube","mesh":4},{"rotation":[0.3826834323650898,0,0,0.9238795325112867],"translation":[0,1.5,0.21875],"name":"bone","children":[2,3,4]},{"translation":[0.3625,-1.5,0],"name":"Left Arm","mesh":5},{"translation":[0.3625,-1.5,0],"name":"Left Arm Layer","mesh":6},{"translation":[-0.3625,1.5,0],"name":"Left Arm","children":[6,7]},{"translation":[-0.3625,-1.5,0],"name":"Right Arm","mesh":7},{"translation":[-0.3625,-1.5,0],"name":"Right Arm Layer","mesh":8},{"translation":[0.3625,1.5,0],"name":"Right Arm","children":[9,10]},{"translation":[0,-0.7421875,0.046875],"name":"Body","mesh":9},{"translation":[0,-0.7421875,0.046875],"name":"Body Layer","mesh":10},{"translation":[0,0.7421875,-0.046875],"name":"Body","children":[12,13]},{"translation":[-0.11875,-0.75,0],"name":"Right Leg","mesh":11},{"translation":[-0.11875,-0.75,0],"name":"Right Leg Layer","mesh":12},{"translation":[0.11875,0.75,0],"name":"Right Leg","children":[15,16]},{"translation":[0.11875,-0.75,0],"name":"Left Leg","mesh":13},{"translation":[0.11875,-0.75,0],"name":"Left Leg Layer","mesh":14},{"translation":[-0.11875,0.75,0],"name":"Left Leg","children":[18,19]},{"translation":[-0.021875000000000006,-0.046875,0.25],"name":"Head","mesh":15},{"translation":[-0.125,0.12343750000000009,-0.25],"name":"leyebottom","children":[21]},{"translation":[-0.0062500000000000056,-0.078125,0.25],"name":"Head","mesh":16},{"translation":[-0.140625,0.1875,-0.25],"name":"leyetop","children":[23]},{"translation":[-0.015625,-0.078125,0.25],"name":"Head","mesh":17},{"translation":[0.171875,0.1875,-0.25],"name":"reyetop","children":[25]},{"translation":[0.03125,-0.046875,0.25],"name":"Head","mesh":18},{"translation":[0.125,0.12343750000000009,-0.25],"name":"reyebottom","children":[27]},{"translation":[0,-1.5,0],"name":"Head","mesh":19},{"translation":[0,-1.5,0],"name":"Hat Layer","mesh":20},{"translation":[0,1.5,0],"name":"Head","children":[22,24,26,28,29,30]},{"children":[0,1,5,8,11,14,17,20,31]}],"bufferViews":[{"buffer":0,"byteOffset":0,"byteLength":288,"target":34962,"byteStride":12},{"buffer":0,"byteOffset":288,"byteLength":288,"target":34962,"byteStride":12},{"buffer":0,"byteOffset":576,"byteLength":192,"target":34962,"byteStride":8},{"buffer":0,"byteOffset":768,"byteLength":72,"target":34963},{"buffer":0,"byteOffset":840,"byteLength":288,"target":34962,"byteStride":12},{"buffer":0,"byteOffset":1128,"byteLength":288,"target":34962,"byteStride":12},{"buffer":0,"byteOffset":1416,"byteLength":192,"target":34962,"byteStride":8},{"buffer":0,"byteOffset":1608,"byteLength":72,"target":34963},{"buffer":0,"byteOffset":1680,"byteLength":288,"target":34962,"byteStride":12},{"buffer":0,"byteOffset":1968,"byteLength":288,"target":34962,"byteStride":12},{"buffer":0,"byteOffset":2256,"byteLength":192,"target":34962,"byteStride":8},{"buffer":0,"byteOffset":2448,"byteLength":72,"target":34963},{"buffer":0,"byteOffset":2520,"byteLength":288,"target":34962,"byteStride":12},{"buffer":0,"byteOffset":2808,"byteLength":288,"target":34962,"byteStride":12},{"buffer":0,"byteOffset":3096,"byteLength":192,"target":34962,"byteStride":8},{"buffer":0,"byteOffset":3288,"byteLength":72,"target":34963},{"buffer":0,"byteOffset":3360,"byteLength":288,"target":34962,"byteStride":12},{"buffer":0,"byteOffset":3648,"byteLength":288,"target":34962,"byteStride":12},{"buffer":0,"byteOffset":3936,"byteLength":192,"target":34962,"byteStride":8},{"buffer":0,"byteOffset":4128,"byteLength":72,"target":34963},{"buffer":0,"byteOffset":4200,"byteLength":288,"target":34962,"byteStride":12},{"buffer":0,"byteOffset":4488,"byteLength":288,"target":34962,"byteStride":12},{"buffer":0,"byteOffset":4776,"byteLength":192,"target":34962,"byteStride":8},{"buffer":0,"byteOffset":4968,"byteLength":72,"target":34963},{"buffer":0,"byteOffset":5040,"byteLength":288,"target":34962,"byteStride":12},{"buffer":0,"byteOffset":5328,"byteLength":288,"target":34962,"byteStride":12},{"buffer":0,"byteOffset":5616,"byteLength":192,"target":34962,"byteStride":8},{"buffer":0,"byteOffset":5808,"byteLength":72,"target":34963},{"buffer":0,"byteOffset":5880,"byteLength":288,"target":34962,"byteStride":12},{"buffer":0,"byteOffset":6168,"byteLength":288,"target":34962,"byteStride":12},{"buffer":0,"byteOffset":6456,"byteLength":192,"target":34962,"byteStride":8},{"buffer":0,"byteOffset":6648,"byteLength":72,"target":34963},{"buffer":0,"byteOffset":6720,"byteLength":288,"target":34962,"byteStride":12},{"buffer":0,"byteOffset":7008,"byteLength":288,"target":34962,"byteStride":12},{"buffer":0,"byteOffset":7296,"byteLength":192,"target":34962,"byteStride":8},{"buffer":0,"byteOffset":7488,"byteLength":72,"target":34963},{"buffer":0,"byteOffset":7560,"byteLength":288,"target":34962,"byteStride":12},{"buffer":0,"byteOffset":7848,"byteLength":288,"target":34962,"byteStride":12},{"buffer":0,"byteOffset":8136,"byteLength":192,"target":34962,"byteStride":8},{"buffer":0,"byteOffset":8328,"byteLength":72,"target":34963},{"buffer":0,"byteOffset":8400,"byteLength":288,"target":34962,"byteStride":12},{"buffer":0,"byteOffset":8688,"byteLength":288,"target":34962,"byteStride":12},{"buffer":0,"byteOffset":8976,"byteLength":192,"target":34962,"byteStride":8},{"buffer":0,"byteOffset":9168,"byteLength":72,"target":34963},{"buffer":0,"byteOffset":9240,"byteLength":288,"target":34962,"byteStride":12},{"buffer":0,"byteOffset":9528,"byteLength":288,"target":34962,"byteStride":12},{"buffer":0,"byteOffset":9816,"byteLength":192,"target":34962,"byteStride":8},{"buffer":0,"byteOffset":10008,"byteLength":72,"target":34963},{"buffer":0,"byteOffset":10080,"byteLength":288,"target":34962,"byteStride":12},{"buffer":0,"byteOffset":10368,"byteLength":288,"target":34962,"byteStride":12},{"buffer":0,"byteOffset":10656,"byteLength":192,"target":34962,"byteStride":8},{"buffer":0,"byteOffset":10848,"byteLength":72,"target":34963},{"buffer":0,"byteOffset":10920,"byteLength":288,"target":34962,"byteStride":12},{"buffer":0,"byteOffset":11208,"byteLength":288,"target":34962,"byteStride":12},{"buffer":0,"byteOffset":11496,"byteLength":192,"target":34962,"byteStride":8},{"buffer":0,"byteOffset":11688,"byteLength":72,"target":34963},{"buffer":0,"byteOffset":11760,"byteLength":288,"target":34962,"byteStride":12},{"buffer":0,"byteOffset":12048,"byteLength":288,"target":34962,"byteStride":12},{"buffer":0,"byteOffset":12336,"byteLength":192,"target":34962,"byteStride":8},{"buffer":0,"byteOffset":12528,"byteLength":72,"target":34963},{"buffer":0,"byteOffset":12600,"byteLength":288,"target":34962,"byteStride":12},{"buffer":0,"byteOffset":12888,"byteLength":288,"target":34962,"byteStride":12},{"buffer":0,"byteOffset":13176,"byteLength":192,"target":34962,"byteStride":8},{"buffer":0,"byteOffset":13368,"byteLength":72,"target":34963},{"buffer":0,"byteOffset":13440,"byteLength":288,"target":34962,"byteStride":12},{"buffer":0,"byteOffset":13728,"byteLength":288,"target":34962,"byteStride":12},{"buffer":0,"byteOffset":14016,"byteLength":192,"target":34962,"byteStride":8},{"buffer":0,"byteOffset":14208,"byteLength":72,"target":34963},{"buffer":0,"byteOffset":14280,"byteLength":288,"target":34962,"byteStride":12},{"buffer":0,"byteOffset":14568,"byteLength":288,"target":34962,"byteStride":12},{"buffer":0,"byteOffset":14856,"byteLength":192,"target":34962,"byteStride":8},{"buffer":0,"byteOffset":15048,"byteLength":72,"target":34963},{"buffer":0,"byteOffset":15120,"byteLength":288,"target":34962,"byteStride":12},{"buffer":0,"byteOffset":15408,"byteLength":288,"target":34962,"byteStride":12},{"buffer":0,"byteOffset":15696,"byteLength":192,"target":34962,"byteStride":8},{"buffer":0,"byteOffset":15888,"byteLength":72,"target":34963},{"buffer":0,"byteOffset":15960,"byteLength":288,"target":34962,"byteStride":12},{"buffer":0,"byteOffset":16248,"byteLength":288,"target":34962,"byteStride":12},{"buffer":0,"byteOffset":16536,"byteLength":192,"target":34962,"byteStride":8},{"buffer":0,"byteOffset":16728,"byteLength":72,"target":34963},{"buffer":0,"byteOffset":16800,"byteLength":288,"target":34962,"byteStride":12},{"buffer":0,"byteOffset":17088,"byteLength":288,"target":34962,"byteStride":12},{"buffer":0,"byteOffset":17376,"byteLength":192,"target":34962,"byteStride":8},{"buffer":0,"byteOffset":17568,"byteLength":72,"target":34963},{"buffer":0,"byteOffset":17640,"byteLength":4},{"buffer":0,"byteOffset":17644,"byteLength":16},{"buffer":0,"byteOffset":17660,"byteLength":20},{"buffer":0,"byteOffset":17680,"byteLength":60},{"buffer":0,"byteOffset":17740,"byteLength":4},{"buffer":0,"byteOffset":17744,"byteLength":16},{"buffer":0,"byteOffset":17760,"byteLength":20},{"buffer":0,"byteOffset":17780,"byteLength":60},{"buffer":0,"byteOffset":17840,"byteLength":4},{"buffer":0,"byteOffset":17844,"byteLength":16},{"buffer":0,"byteOffset":17860,"byteLength":20},{"buffer":0,"byteOffset":17880,"byteLength":60},{"buffer":0,"byteOffset":17940,"byteLength":4},{"buffer":0,"byteOffset":17944,"byteLength":16},{"buffer":0,"byteOffset":17960,"byteLength":20},{"buffer":0,"byteOffset":17980,"byteLength":60}],"buffers":[{"byteLength":18040,"uri":"data:application/octet-stream;base64,"}],"accessors":[{"bufferView":0,"componentType":5126,"count":24,"max":[0.0625,0.1875,0.0625],"min":[-0.125,-0.0625,-0.0625],"type":"VEC3"},{"bufferView":1,"componentType":5126,"count":24,"max":[1,1,1],"min":[-1,-1,-1],"type":"VEC3"},{"bufferView":2,"componentType":5126,"count":24,"max":[0.74951171875,0.40576171875],"min":[0.43798828125,0.21923828125],"type":"VEC2"},{"bufferView":3,"componentType":5123,"count":36,"max":[23],"min":[0],"type":"SCALAR"},{"bufferView":4,"componentType":5126,"count":24,"max":[0.0625,0.125,0.125],"min":[-0.0625,-0.0625,-0.0625],"type":"VEC3"},{"bufferView":5,"componentType":5126,"count":24,"max":[1,1,1],"min":[-1,-1,-1],"type":"VEC3"},{"bufferView":6,"componentType":5126,"count":24,"max":[0.68701171875,0.62451171875],"min":[0.37548828125,0.43798828125],"type":"VEC2"},{"bufferView":7,"componentType":5123,"count":36,"max":[23],"min":[0],"type":"SCALAR"},{"bufferView":8,"componentType":5126,"count":24,"max":[0.1875,0.125,0.0625],"min":[-0.1875,-0.125,-0.125],"type":"VEC3"},{"bufferView":9,"componentType":5126,"count":24,"max":[1,1,1],"min":[-1,-1,-1],"type":"VEC3"},{"bufferView":10,"componentType":5126,"count":24,"max":[0.56201171875,0.21826171875],"min":[0.00048828125,0.00048828125],"type":"VEC2"},{"bufferView":11,"componentType":5123,"count":36,"max":[23],"min":[0],"type":"SCALAR"},{"bufferView":12,"componentType":5126,"count":24,"max":[0.09375,0.09375,0.1875],"min":[-0.09375,-0.09375,-0.0625],"type":"VEC3"},{"bufferView":13,"componentType":5126,"count":24,"max":[1,1,1],"min":[-1,-1,-1],"type":"VEC3"},{"bufferView":14,"componentType":5126,"count":24,"max":[0.43701171875,0.43701171875],"min":[0.00048828125,0.21923828125],"type":"VEC2"},{"bufferView":15,"componentType":5123,"count":36,"max":[23],"min":[0],"type":"SCALAR"},{"bufferView":16,"componentType":5126,"count":24,"max":[0.10625000298023224,0.11249999701976776,0.23749999701976776],"min":[-0.10625000298023224,-0.11249999701976776,0.07500000298023224],"type":"VEC3"},{"bufferView":17,"componentType":5126,"count":24,"max":[1,1,1],"min":[-1,-1,-1],"type":"VEC3"},{"bufferView":18,"componentType":5126,"count":24,"max":[0.37451171875,0.65576171875],"min":[0.00048828125,0.43798828125],"type":"VEC2"},{"bufferView":19,"componentType":5123,"count":36,"max":[23],"min":[0],"type":"SCALAR"},{"bufferView":20,"componentType":5126,"count":24,"max":[-0.25,1.5,0.125],"min":[-0.4375,0.75,-0.125],"type":"VEC3"},{"bufferView":21,"componentType":5126,"count":24,"max":[1,1,1],"min":[-1,-1,-1],"type":"VEC3"},{"bufferView":22,"componentType":5126,"count":24,"max":[0.718505859375,0.999755859375],"min":[0.500244140625,0.750244140625],"type":"VEC2"},{"bufferView":23,"componentType":5123,"count":36,"max":[23],"min":[0],"type":"SCALAR"},{"bufferView":24,"componentType":5126,"count":24,"max":[-0.234375,1.515625,0.140625],"min":[-0.453125,0.734375,-0.140625],"type":"VEC3"},{"bufferView":25,"componentType":5126,"count":24,"max":[1,1,1],"min":[-1,-1,-1],"type":"VEC3"},{"bufferView":26,"componentType":5126,"count":24,"max":[0.968505859375,0.999755859375],"min":[0.750244140625,0.750244140625],"type":"VEC2"},{"bufferView":27,"componentType":5123,"count":36,"max":[23],"min":[0],"type":"SCALAR"},{"bufferView":28,"componentType":5126,"count":24,"max":[0.4375,1.5,0.125],"min":[0.25,0.75,-0.125],"type":"VEC3"},{"bufferView":29,"componentType":5126,"count":24,"max":[1,1,1],"min":[-1,-1,-1],"type":"VEC3"},{"bufferView":30,"componentType":5126,"count":24,"max":[0.843505859375,0.499755859375],"min":[0.625244140625,0.250244140625],"type":"VEC2"},{"bufferView":31,"componentType":5123,"count":36,"max":[23],"min":[0],"type":"SCALAR"},{"bufferView":32,"componentType":5126,"count":24,"max":[0.453125,1.515625,0.140625],"min":[0.234375,0.734375,-0.140625],"type":"VEC3"},{"bufferView":33,"componentType":5126,"count":24,"max":[1,1,1],"min":[-1,-1,-1],"type":"VEC3"},{"bufferView":34,"componentType":5126,"count":24,"max":[0.843505859375,0.749755859375],"min":[0.625244140625,0.500244140625],"type":"VEC2"},{"bufferView":35,"componentType":5123,"count":36,"max":[23],"min":[0],"type":"SCALAR"},{"bufferView":36,"componentType":5126,"count":24,"max":[0.25,1.5,0.125],"min":[-0.25,0.75,-0.125],"type":"VEC3"},{"bufferView":37,"componentType":5126,"count":24,"max":[1,1,1],"min":[-1,-1,-1],"type":"VEC3"},{"bufferView":38,"componentType":5126,"count":24,"max":[0.624755859375,0.499755859375],"min":[0.250244140625,0.250244140625],"type":"VEC2"},{"bufferView":39,"componentType":5123,"count":36,"max":[23],"min":[0],"type":"SCALAR"},{"bufferView":40,"componentType":5126,"count":24,"max":[0.265625,1.515625,0.140625],"min":[-0.265625,0.734375,-0.140625],"type":"VEC3"},{"bufferView":41,"componentType":5126,"count":24,"max":[1,1,1],"min":[-1,-1,-1],"type":"VEC3"},{"bufferView":42,"componentType":5126,"count":24,"max":[0.624755859375,0.749755859375],"min":[0.250244140625,0.500244140625],"type":"VEC2"},{"bufferView":43,"componentType":5123,"count":36,"max":[23],"min":[0],"type":"SCALAR"},{"bufferView":44,"componentType":5126,"count":24,"max":[0.24375000596046448,0.75,0.125],"min":[-0.0062500000931322575,0,-0.125],"type":"VEC3"},{"bufferView":45,"componentType":5126,"count":24,"max":[1,1,1],"min":[-1,-1,-1],"type":"VEC3"},{"bufferView":46,"componentType":5126,"count":24,"max":[0.249755859375,0.499755859375],"min":[0.000244140625,0.250244140625],"type":"VEC2"},{"bufferView":47,"componentType":5123,"count":36,"max":[23],"min":[0],"type":"SCALAR"},{"bufferView":48,"componentType":5126,"count":24,"max":[0.2593750059604645,0.765625,0.140625],"min":[-0.02187499962747097,-0.015625,-0.140625],"type":"VEC3"},{"bufferView":49,"componentType":5126,"count":24,"max":[1,1,1],"min":[-1,-1,-1],"type":"VEC3"},{"bufferView":50,"componentType":5126,"count":24,"max":[0.249755859375,0.749755859375],"min":[0.000244140625,0.500244140625],"type":"VEC2"},{"bufferView":51,"componentType":5123,"count":36,"max":[23],"min":[0],"type":"SCALAR"},{"bufferView":52,"componentType":5126,"count":24,"max":[0.0062500000931322575,0.75,0.125],"min":[-0.24375000596046448,0,-0.125],"type":"VEC3"},{"bufferView":53,"componentType":5126,"count":24,"max":[1,1,1],"min":[-1,-1,-1],"type":"VEC3"},{"bufferView":54,"componentType":5126,"count":24,"max":[0.499755859375,0.999755859375],"min":[0.250244140625,0.750244140625],"type":"VEC2"},{"bufferView":55,"componentType":5123,"count":36,"max":[23],"min":[0],"type":"SCALAR"},{"bufferView":56,"componentType":5126,"count":24,"max":[0.02187499962747097,0.765625,0.140625],"min":[-0.2593750059604645,-0.015625,-0.140625],"type":"VEC3"},{"bufferView":57,"componentType":5126,"count":24,"max":[1,1,1],"min":[-1,-1,-1],"type":"VEC3"},{"bufferView":58,"componentType":5126,"count":24,"max":[0.249755859375,0.999755859375],"min":[0.000244140625,0.750244140625],"type":"VEC2"},{"bufferView":59,"componentType":5123,"count":36,"max":[23],"min":[0],"type":"SCALAR"},{"bufferView":60,"componentType":5126,"count":24,"max":[0.08437500149011612,0.078125,-0.25056248903274536],"min":[-0.04062499850988388,0.046875,-0.25062501430511475],"type":"VEC3"},{"bufferView":61,"componentType":5126,"count":24,"max":[1,1,1],"min":[-1,-1,-1],"type":"VEC3"},{"bufferView":62,"componentType":5126,"count":24,"max":[0.062255859375,0.015869140625],"min":[-0.000244140625,0.015380859375],"type":"VEC2"},{"bufferView":63,"componentType":5123,"count":36,"max":[23],"min":[0],"type":"SCALAR"},{"bufferView":64,"componentType":5126,"count":24,"max":[0.08437500149011612,0.078125,-0.25056248903274536],"min":[-0.04062499850988388,0.046875,-0.25062501430511475],"type":"VEC3"},{"bufferView":65,"componentType":5126,"count":24,"max":[1,1,1],"min":[-1,-1,-1],"type":"VEC3"},{"bufferView":66,"componentType":5126,"count":24,"max":[0.062255859375,0.015869140625],"min":[-0.000244140625,0.015380859375],"type":"VEC2"},{"bufferView":67,"componentType":5123,"count":36,"max":[23],"min":[0],"type":"SCALAR"},{"bufferView":68,"componentType":5126,"count":24,"max":[0.03125,0.078125,-0.25056248903274536],"min":[-0.09375,0.046875,-0.25062501430511475],"type":"VEC3"},{"bufferView":69,"componentType":5126,"count":24,"max":[1,1,1],"min":[-1,-1,-1],"type":"VEC3"},{"bufferView":70,"componentType":5126,"count":24,"max":[0.062255859375,0.000244140625],"min":[-0.000244140625,-0.000244140625],"type":"VEC2"},{"bufferView":71,"componentType":5123,"count":36,"max":[23],"min":[0],"type":"SCALAR"},{"bufferView":72,"componentType":5126,"count":24,"max":[0.03125,0.078125,-0.25056248903274536],"min":[-0.09375,0.046875,-0.25062501430511475],"type":"VEC3"},{"bufferView":73,"componentType":5126,"count":24,"max":[1,1,1],"min":[-1,-1,-1],"type":"VEC3"},{"bufferView":74,"componentType":5126,"count":24,"max":[0.062255859375,0.000244140625],"min":[-0.000244140625,-0.000244140625],"type":"VEC2"},{"bufferView":75,"componentType":5123,"count":36,"max":[23],"min":[0],"type":"SCALAR"},{"bufferView":76,"componentType":5126,"count":24,"max":[0.25,2,0.25],"min":[-0.25,1.5,-0.25],"type":"VEC3"},{"bufferView":77,"componentType":5126,"count":24,"max":[1,1,1],"min":[-1,-1,-1],"type":"VEC3"},{"bufferView":78,"componentType":5126,"count":24,"max":[0.499755859375,0.249755859375],"min":[0.000244140625,0.000244140625],"type":"VEC2"},{"bufferView":79,"componentType":5123,"count":36,"max":[23],"min":[0],"type":"SCALAR"},{"bufferView":80,"componentType":5126,"count":24,"max":[0.28125,2.03125,0.28125],"min":[-0.28125,1.46875,-0.28125],"type":"VEC3"},{"bufferView":81,"componentType":5126,"count":24,"max":[1,1,1],"min":[-1,-1,-1],"type":"VEC3"},{"bufferView":82,"componentType":5126,"count":24,"max":[0.999755859375,0.249755859375],"min":[0.500244140625,0.000244140625],"type":"VEC2"},{"bufferView":83,"componentType":5123,"count":36,"max":[23],"min":[0],"type":"SCALAR"},{"bufferView":84,"componentType":5126,"count":1,"max":[8.208330154418945],"min":[8.208330154418945],"type":"SCALAR"},{"bufferView":85,"componentType":5126,"count":1,"max":[0,0,0,1],"min":[0,0,0,1],"type":"VEC4"},{"bufferView":86,"componentType":5126,"count":5,"max":[0.2916699945926666],"min":[0],"type":"SCALAR"},{"bufferView":87,"componentType":5126,"count":5,"max":[1,1.100000023841858,1],"min":[1,0,1],"type":"VEC3"},{"bufferView":88,"componentType":5126,"count":1,"max":[8.208330154418945],"min":[8.208330154418945],"type":"SCALAR"},{"bufferView":89,"componentType":5126,"count":1,"max":[0,0,0,1],"min":[0,0,0,1],"type":"VEC4"},{"bufferView":90,"componentType":5126,"count":5,"max":[0.2916699945926666],"min":[0],"type":"SCALAR"},{"bufferView":91,"componentType":5126,"count":5,"max":[1,1.100000023841858,1],"min":[1,0,1],"type":"VEC3"},{"bufferView":92,"componentType":5126,"count":1,"max":[8.208330154418945],"min":[8.208330154418945],"type":"SCALAR"},{"bufferView":93,"componentType":5126,"count":1,"max":[0,0,0,1],"min":[0,0,0,1],"type":"VEC4"},{"bufferView":94,"componentType":5126,"count":5,"max":[0.2916699945926666],"min":[0],"type":"SCALAR"},{"bufferView":95,"componentType":5126,"count":5,"max":[1,1,1],"min":[1,0,1],"type":"VEC3"},{"bufferView":96,"componentType":5126,"count":1,"max":[8.208330154418945],"min":[8.208330154418945],"type":"SCALAR"},{"bufferView":97,"componentType":5126,"count":1,"max":[0,0,0,1],"min":[0,0,0,1],"type":"VEC4"},{"bufferView":98,"componentType":5126,"count":5,"max":[0.2916699945926666],"min":[0],"type":"SCALAR"},{"bufferView":99,"componentType":5126,"count":5,"max":[1,1,1],"min":[1,0,1],"type":"VEC3"}],"materials":[{"pbrMetallicRoughness":{"metallicFactor":0,"roughnessFactor":1,"baseColorTexture":{"index":0}},"alphaMode":"MASK","alphaCutoff":0.05,"doubleSided":true},{"pbrMetallicRoughness":{"metallicFactor":0,"roughnessFactor":1,"baseColorTexture":{"index":1}},"alphaMode":"MASK","alphaCutoff":0.05,"doubleSided":true}],"textures":[{"sampler":0,"source":0,"name":"extra.png"},{"sampler":1,"source":1,"name":"skin.png"}],"samplers":[{"magFilter":9728,"minFilter":9728,"wrapS":33071,"wrapT":33071},{"magFilter":9728,"minFilter":9728,"wrapS":33071,"wrapT":33071}],"images":[{"mimeType":"image/png","uri":"data:image/png;base64,"},{"mimeType":"image/png","uri":"data:image/png;base64,"}],"meshes":[{"primitives":[{"mode":4,"attributes":{"POSITION":0,"NORMAL":1,"TEXCOORD_0":2},"indices":3,"material":0}]},{"primitives":[{"mode":4,"attributes":{"POSITION":4,"NORMAL":5,"TEXCOORD_0":6},"indices":7,"material":0}]},{"primitives":[{"mode":4,"attributes":{"POSITION":8,"NORMAL":9,"TEXCOORD_0":10},"indices":11,"material":0}]},{"primitives":[{"mode":4,"attributes":{"POSITION":12,"NORMAL":13,"TEXCOORD_0":14},"indices":15,"material":0}]},{"primitives":[{"mode":4,"attributes":{"POSITION":16,"NORMAL":17,"TEXCOORD_0":18},"indices":19,"material":0}]},{"primitives":[{"mode":4,"attributes":{"POSITION":20,"NORMAL":21,"TEXCOORD_0":22},"indices":23,"material":1}]},{"primitives":[{"mode":4,"attributes":{"POSITION":24,"NORMAL":25,"TEXCOORD_0":26},"indices":27,"material":1}]},{"primitives":[{"mode":4,"attributes":{"POSITION":28,"NORMAL":29,"TEXCOORD_0":30},"indices":31,"material":1}]},{"primitives":[{"mode":4,"attributes":{"POSITION":32,"NORMAL":33,"TEXCOORD_0":34},"indices":35,"material":1}]},{"primitives":[{"mode":4,"attributes":{"POSITION":36,"NORMAL":37,"TEXCOORD_0":38},"indices":39,"material":1}]},{"primitives":[{"mode":4,"attributes":{"POSITION":40,"NORMAL":41,"TEXCOORD_0":42},"indices":43,"material":1}]},{"primitives":[{"mode":4,"attributes":{"POSITION":44,"NORMAL":45,"TEXCOORD_0":46},"indices":47,"material":1}]},{"primitives":[{"mode":4,"attributes":{"POSITION":48,"NORMAL":49,"TEXCOORD_0":50},"indices":51,"material":1}]},{"primitives":[{"mode":4,"attributes":{"POSITION":52,"NORMAL":53,"TEXCOORD_0":54},"indices":55,"material":1}]},{"primitives":[{"mode":4,"attributes":{"POSITION":56,"NORMAL":57,"TEXCOORD_0":58},"indices":59,"material":1}]},{"primitives":[{"mode":4,"attributes":{"POSITION":60,"NORMAL":61,"TEXCOORD_0":62},"indices":63,"material":1}]},{"primitives":[{"mode":4,"attributes":{"POSITION":64,"NORMAL":65,"TEXCOORD_0":66},"indices":67,"material":1}]},{"primitives":[{"mode":4,"attributes":{"POSITION":68,"NORMAL":69,"TEXCOORD_0":70},"indices":71,"material":1}]},{"primitives":[{"mode":4,"attributes":{"POSITION":72,"NORMAL":73,"TEXCOORD_0":74},"indices":75,"material":1}]},{"primitives":[{"mode":4,"attributes":{"POSITION":76,"NORMAL":77,"TEXCOORD_0":78},"indices":79,"material":1}]},{"primitives":[{"mode":4,"attributes":{"POSITION":80,"NORMAL":81,"TEXCOORD_0":82},"indices":83,"material":1}]}],"animations":[{"name":"fanzya","samplers":[{"input":84,"output":85,"interpolation":"LINEAR"},{"input":86,"output":87,"interpolation":"LINEAR"},{"input":88,"output":89,"interpolation":"LINEAR"},{"input":90,"output":91,"interpolation":"LINEAR"},{"input":92,"output":93,"interpolation":"LINEAR"},{"input":94,"output":95,"interpolation":"LINEAR"},{"input":96,"output":97,"interpolation":"LINEAR"},{"input":98,"output":99,"interpolation":"LINEAR"}],"channels":[{"sampler":0,"target":{"node":22,"path":"rotation"}},{"sampler":1,"target":{"node":22,"path":"scale"}},{"sampler":2,"target":{"node":26,"path":"rotation"}},{"sampler":3,"target":{"node":26,"path":"scale"}},{"sampler":4,"target":{"node":28,"path":"rotation"}},{"sampler":5,"target":{"node":28,"path":"scale"}},{"sampler":6,"target":{"node":24,"path":"rotation"}},{"sampler":7,"target":{"node":24,"path":"scale"}}]}]}