{"asset":{"version":"2.0","generator":"Blockbench 4.12.4 glTF exporter"},"scenes":[{"nodes":[26],"name":"blockbench_export"}],"scene":0,"nodes":[{"translation":[0,-1.5,0],"name":"Head","mesh":0},{"translation":[0,-1.5,0],"name":"Hat Layer","mesh":1},{"translation":[0.1875,-1.5625,0.25],"name":"Head","mesh":2},{"translation":[-0.125,0.1875,-0.1875],"name":"reyetop","children":[2]},{"translation":[0.1875,-1.5,0.25],"name":"Head","mesh":3},{"translation":[-0.125,0.125,-0.1875],"name":"reyebottom","children":[4]},{"translation":[0.1875,-1.5625,0.25],"name":"Head","mesh":4},{"translation":[0.125,0.1875,-0.1875],"name":"leyetop","children":[6]},{"translation":[0.1875,-1.5,0.25],"name":"Head","mesh":5},{"translation":[0.125,0.125,-0.1875],"name":"leyebottom","children":[8]},{"translation":[0,1.5,0],"name":"Head","children":[0,1,3,5,7,9]},{"translation":[0,-1.5,0],"name":"Body","mesh":6},{"translation":[0,-1.5,0],"name":"Body Layer","mesh":7},{"translation":[0,1.5,0],"name":"Body","children":[11,12]},{"translation":[-0.3125,-1.375,0],"name":"Right Arm","mesh":8},{"translation":[-0.3125,-1.375,0],"name":"Right Arm Layer","mesh":9},{"translation":[0.3125,1.375,0],"name":"Right Arm","children":[14,15]},{"translation":[0.3125,-1.375,0],"name":"Left Arm","mesh":10},{"translation":[0.3125,-1.375,0],"name":"Left Arm Layer","mesh":11},{"translation":[-0.3125,1.375,0],"name":"Left Arm","children":[17,18]},{"translation":[-0.11875,-0.75,0],"name":"Right Leg","mesh":12},{"translation":[-0.11875,-0.75,0],"name":"Right Leg Layer","mesh":13},{"translation":[0.11875,0.75,0],"name":"Right Leg","children":[20,21]},{"translation":[0.11875,-0.75,0],"name":"Left Leg","mesh":14},{"translation":[0.11875,-0.75,0],"name":"Left Leg Layer","mesh":15},{"translation":[-0.11875,0.75,0],"name":"Left Leg","children":[23,24]},{"children":[10,13,16,19,22,25]}],"bufferViews":[{"buffer":0,"byteOffset":0,"byteLength":288,"target":34962,"byteStride":12},{"buffer":0,"byteOffset":288,"byteLength":288,"target":34962,"byteStride":12},{"buffer":0,"byteOffset":576,"byteLength":192,"target":34962,"byteStride":8},{"buffer":0,"byteOffset":768,"byteLength":72,"target":34963},{"buffer":0,"byteOffset":840,"byteLength":288,"target":34962,"byteStride":12},{"buffer":0,"byteOffset":1128,"byteLength":288,"target":34962,"byteStride":12},{"buffer":0,"byteOffset":1416,"byteLength":192,"target":34962,"byteStride":8},{"buffer":0,"byteOffset":1608,"byteLength":72,"target":34963},{"buffer":0,"byteOffset":1680,"byteLength":288,"target":34962,"byteStride":12},{"buffer":0,"byteOffset":1968,"byteLength":288,"target":34962,"byteStride":12},{"buffer":0,"byteOffset":2256,"byteLength":192,"target":34962,"byteStride":8},{"buffer":0,"byteOffset":2448,"byteLength":72,"target":34963},{"buffer":0,"byteOffset":2520,"byteLength":288,"target":34962,"byteStride":12},{"buffer":0,"byteOffset":2808,"byteLength":288,"target":34962,"byteStride":12},{"buffer":0,"byteOffset":3096,"byteLength":192,"target":34962,"byteStride":8},{"buffer":0,"byteOffset":3288,"byteLength":72,"target":34963},{"buffer":0,"byteOffset":3360,"byteLength":288,"target":34962,"byteStride":12},{"buffer":0,"byteOffset":3648,"byteLength":288,"target":34962,"byteStride":12},{"buffer":0,"byteOffset":3936,"byteLength":192,"target":34962,"byteStride":8},{"buffer":0,"byteOffset":4128,"byteLength":72,"target":34963},{"buffer":0,"byteOffset":4200,"byteLength":288,"target":34962,"byteStride":12},{"buffer":0,"byteOffset":4488,"byteLength":288,"target":34962,"byteStride":12},{"buffer":0,"byteOffset":4776,"byteLength":192,"target":34962,"byteStride":8},{"buffer":0,"byteOffset":4968,"byteLength":72,"target":34963},{"buffer":0,"byteOffset":5040,"byteLength":288,"target":34962,"byteStride":12},{"buffer":0,"byteOffset":5328,"byteLength":288,"target":34962,"byteStride":12},{"buffer":0,"byteOffset":5616,"byteLength":192,"target":34962,"byteStride":8},{"buffer":0,"byteOffset":5808,"byteLength":72,"target":34963},{"buffer":0,"byteOffset":5880,"byteLength":288,"target":34962,"byteStride":12},{"buffer":0,"byteOffset":6168,"byteLength":288,"target":34962,"byteStride":12},{"buffer":0,"byteOffset":6456,"byteLength":192,"target":34962,"byteStride":8},{"buffer":0,"byteOffset":6648,"byteLength":72,"target":34963},{"buffer":0,"byteOffset":6720,"byteLength":288,"target":34962,"byteStride":12},{"buffer":0,"byteOffset":7008,"byteLength":288,"target":34962,"byteStride":12},{"buffer":0,"byteOffset":7296,"byteLength":192,"target":34962,"byteStride":8},{"buffer":0,"byteOffset":7488,"byteLength":72,"target":34963},{"buffer":0,"byteOffset":7560,"byteLength":288,"target":34962,"byteStride":12},{"buffer":0,"byteOffset":7848,"byteLength":288,"target":34962,"byteStride":12},{"buffer":0,"byteOffset":8136,"byteLength":192,"target":34962,"byteStride":8},{"buffer":0,"byteOffset":8328,"byteLength":72,"target":34963},{"buffer":0,"byteOffset":8400,"byteLength":288,"target":34962,"byteStride":12},{"buffer":0,"byteOffset":8688,"byteLength":288,"target":34962,"byteStride":12},{"buffer":0,"byteOffset":8976,"byteLength":192,"target":34962,"byteStride":8},{"buffer":0,"byteOffset":9168,"byteLength":72,"target":34963},{"buffer":0,"byteOffset":9240,"byteLength":288,"target":34962,"byteStride":12},{"buffer":0,"byteOffset":9528,"byteLength":288,"target":34962,"byteStride":12},{"buffer":0,"byteOffset":9816,"byteLength":192,"target":34962,"byteStride":8},{"buffer":0,"byteOffset":10008,"byteLength":72,"target":34963},{"buffer":0,"byteOffset":10080,"byteLength":288,"target":34962,"byteStride":12},{"buffer":0,"byteOffset":10368,"byteLength":288,"target":34962,"byteStride":12},{"buffer":0,"byteOffset":10656,"byteLength":192,"target":34962,"byteStride":8},{"buffer":0,"byteOffset":10848,"byteLength":72,"target":34963},{"buffer":0,"byteOffset":10920,"byteLength":288,"target":34962,"byteStride":12},{"buffer":0,"byteOffset":11208,"byteLength":288,"target":34962,"byteStride":12},{"buffer":0,"byteOffset":11496,"byteLength":192,"target":34962,"byteStride":8},{"buffer":0,"byteOffset":11688,"byteLength":72,"target":34963},{"buffer":0,"byteOffset":11760,"byteLength":288,"target":34962,"byteStride":12},{"buffer":0,"byteOffset":12048,"byteLength":288,"target":34962,"byteStride":12},{"buffer":0,"byteOffset":12336,"byteLength":192,"target":34962,"byteStride":8},{"buffer":0,"byteOffset":12528,"byteLength":72,"target":34963},{"buffer":0,"byteOffset":12600,"byteLength":288,"target":34962,"byteStride":12},{"buffer":0,"byteOffset":12888,"byteLength":288,"target":34962,"byteStride":12},{"buffer":0,"byteOffset":13176,"byteLength":192,"target":34962,"byteStride":8},{"buffer":0,"byteOffset":13368,"byteLength":72,"target":34963},{"buffer":0,"byteOffset":13440,"byteLength":4},{"buffer":0,"byteOffset":13444,"byteLength":12},{"buffer":0,"byteOffset":13456,"byteLength":20},{"buffer":0,"byteOffset":13476,"byteLength":60},{"buffer":0,"byteOffset":13536,"byteLength":4},{"buffer":0,"byteOffset":13540,"byteLength":12},{"buffer":0,"byteOffset":13552,"byteLength":20},{"buffer":0,"byteOffset":13572,"byteLength":60},{"buffer":0,"byteOffset":13632,"byteLength":4},{"buffer":0,"byteOffset":13636,"byteLength":12},{"buffer":0,"byteOffset":13648,"byteLength":24},{"buffer":0,"byteOffset":13672,"byteLength":72},{"buffer":0,"byteOffset":13744,"byteLength":4},{"buffer":0,"byteOffset":13748,"byteLength":12},{"buffer":0,"byteOffset":13760,"byteLength":20},{"buffer":0,"byteOffset":13780,"byteLength":60},{"buffer":0,"byteOffset":13840,"byteLength":16},{"buffer":0,"byteOffset":13856,"byteLength":64},{"buffer":0,"byteOffset":13920,"byteLength":16},{"buffer":0,"byteOffset":13936,"byteLength":64},{"buffer":0,"byteOffset":14000,"byteLength":16},{"buffer":0,"byteOffset":14016,"byteLength":64},{"buffer":0,"byteOffset":14080,"byteLength":16},{"buffer":0,"byteOffset":14096,"byteLength":64}],"buffers":[{"byteLength":14160,"uri":"data:application/octet-stream;base64,"}],"accessors":[{"bufferView":0,"componentType":5126,"count":24,"max":[0.25,2,0.25],"min":[-0.25,1.5,-0.25],"type":"VEC3"},{"bufferView":1,"componentType":5126,"count":24,"max":[1,1,1],"min":[-1,-1,-1],"type":"VEC3"},{"bufferView":2,"componentType":5126,"count":24,"max":[0.499755859375,0.249755859375],"min":[0.000244140625,0.000244140625],"type":"VEC2"},{"bufferView":3,"componentType":5123,"count":36,"max":[23],"min":[0],"type":"SCALAR"},{"bufferView":4,"componentType":5126,"count":24,"max":[0.28125,2.03125,0.28125],"min":[-0.28125,1.46875,-0.28125],"type":"VEC3"},{"bufferView":5,"componentType":5126,"count":24,"max":[1,1,1],"min":[-1,-1,-1],"type":"VEC3"},{"bufferView":6,"componentType":5126,"count":24,"max":[0.999755859375,0.249755859375],"min":[0.500244140625,0.000244140625],"type":"VEC2"},{"bufferView":7,"componentType":5123,"count":36,"max":[23],"min":[0],"type":"SCALAR"},{"bufferView":8,"componentType":5126,"count":24,"max":[-0.125,1.5625,-0.25056248903274536],"min":[-0.2562499940395355,1.53125,-0.25062501430511475],"type":"VEC3"},{"bufferView":9,"componentType":5126,"count":24,"max":[1,1,1],"min":[-1,-1,-1],"type":"VEC3"},{"bufferView":10,"componentType":5126,"count":24,"max":[0.062255859375,0.000244140625],"min":[-0.000244140625,-0.000244140625],"type":"VEC2"},{"bufferView":11,"componentType":5123,"count":36,"max":[23],"min":[0],"type":"SCALAR"},{"bufferView":12,"componentType":5126,"count":24,"max":[-0.125,1.53125,-0.25056248903274536],"min":[-0.2562499940395355,1.498437523841858,-0.25062501430511475],"type":"VEC3"},{"bufferView":13,"componentType":5126,"count":24,"max":[1,1,1],"min":[-1,-1,-1],"type":"VEC3"},{"bufferView":14,"componentType":5126,"count":24,"max":[0.062255859375,0.000244140625],"min":[-0.000244140625,-0.000244140625],"type":"VEC2"},{"bufferView":15,"componentType":5123,"count":36,"max":[23],"min":[0],"type":"SCALAR"},{"bufferView":16,"componentType":5126,"count":24,"max":[-0.11874999850988388,1.5625,-0.25056248903274536],"min":[-0.25,1.53125,-0.25062501430511475],"type":"VEC3"},{"bufferView":17,"componentType":5126,"count":24,"max":[1,1,1],"min":[-1,-1,-1],"type":"VEC3"},{"bufferView":18,"componentType":5126,"count":24,"max":[0.062255859375,0.000244140625],"min":[-0.000244140625,-0.000244140625],"type":"VEC2"},{"bufferView":19,"componentType":5123,"count":36,"max":[23],"min":[0],"type":"SCALAR"},{"bufferView":20,"componentType":5126,"count":24,"max":[-0.11874999850988388,1.53125,-0.25056248903274536],"min":[-0.25,1.498437523841858,-0.25062501430511475],"type":"VEC3"},{"bufferView":21,"componentType":5126,"count":24,"max":[1,1,1],"min":[-1,-1,-1],"type":"VEC3"},{"bufferView":22,"componentType":5126,"count":24,"max":[0.062255859375,0.000244140625],"min":[-0.000244140625,-0.000244140625],"type":"VEC2"},{"bufferView":23,"componentType":5123,"count":36,"max":[23],"min":[0],"type":"SCALAR"},{"bufferView":24,"componentType":5126,"count":24,"max":[0.25,1.5,0.125],"min":[-0.25,0.75,-0.125],"type":"VEC3"},{"bufferView":25,"componentType":5126,"count":24,"max":[1,1,1],"min":[-1,-1,-1],"type":"VEC3"},{"bufferView":26,"componentType":5126,"count":24,"max":[0.624755859375,0.499755859375],"min":[0.250244140625,0.250244140625],"type":"VEC2"},{"bufferView":27,"componentType":5123,"count":36,"max":[23],"min":[0],"type":"SCALAR"},{"bufferView":28,"componentType":5126,"count":24,"max":[0.265625,1.515625,0.140625],"min":[-0.265625,0.734375,-0.140625],"type":"VEC3"},{"bufferView":29,"componentType":5126,"count":24,"max":[1,1,1],"min":[-1,-1,-1],"type":"VEC3"},{"bufferView":30,"componentType":5126,"count":24,"max":[0.624755859375,0.749755859375],"min":[0.250244140625,0.500244140625],"type":"VEC2"},{"bufferView":31,"componentType":5123,"count":36,"max":[23],"min":[0],"type":"SCALAR"},{"bufferView":32,"componentType":5126,"count":24,"max":[0.5,1.5,0.125],"min":[0.25,0.75,-0.125],"type":"VEC3"},{"bufferView":33,"componentType":5126,"count":24,"max":[1,1,1],"min":[-1,-1,-1],"type":"VEC3"},{"bufferView":34,"componentType":5126,"count":24,"max":[0.874755859375,0.499755859375],"min":[0.625244140625,0.250244140625],"type":"VEC2"},{"bufferView":35,"componentType":5123,"count":36,"max":[23],"min":[0],"type":"SCALAR"},{"bufferView":36,"componentType":5126,"count":24,"max":[0.515625,1.515625,0.140625],"min":[0.234375,0.734375,-0.140625],"type":"VEC3"},{"bufferView":37,"componentType":5126,"count":24,"max":[1,1,1],"min":[-1,-1,-1],"type":"VEC3"},{"bufferView":38,"componentType":5126,"count":24,"max":[0.874755859375,0.749755859375],"min":[0.625244140625,0.500244140625],"type":"VEC2"},{"bufferView":39,"componentType":5123,"count":36,"max":[23],"min":[0],"type":"SCALAR"},{"bufferView":40,"componentType":5126,"count":24,"max":[-0.25,1.5,0.125],"min":[-0.5,0.75,-0.125],"type":"VEC3"},{"bufferView":41,"componentType":5126,"count":24,"max":[1,1,1],"min":[-1,-1,-1],"type":"VEC3"},{"bufferView":42,"componentType":5126,"count":24,"max":[0.749755859375,0.999755859375],"min":[0.500244140625,0.750244140625],"type":"VEC2"},{"bufferView":43,"componentType":5123,"count":36,"max":[23],"min":[0],"type":"SCALAR"},{"bufferView":44,"componentType":5126,"count":24,"max":[-0.234375,1.515625,0.140625],"min":[-0.515625,0.734375,-0.140625],"type":"VEC3"},{"bufferView":45,"componentType":5126,"count":24,"max":[1,1,1],"min":[-1,-1,-1],"type":"VEC3"},{"bufferView":46,"componentType":5126,"count":24,"max":[0.999755859375,0.999755859375],"min":[0.750244140625,0.750244140625],"type":"VEC2"},{"bufferView":47,"componentType":5123,"count":36,"max":[23],"min":[0],"type":"SCALAR"},{"bufferView":48,"componentType":5126,"count":24,"max":[0.24375000596046448,0.75,0.125],"min":[-0.0062500000931322575,0,-0.125],"type":"VEC3"},{"bufferView":49,"componentType":5126,"count":24,"max":[1,1,1],"min":[-1,-1,-1],"type":"VEC3"},{"bufferView":50,"componentType":5126,"count":24,"max":[0.249755859375,0.499755859375],"min":[0.000244140625,0.250244140625],"type":"VEC2"},{"bufferView":51,"componentType":5123,"count":36,"max":[23],"min":[0],"type":"SCALAR"},{"bufferView":52,"componentType":5126,"count":24,"max":[0.2593750059604645,0.765625,0.140625],"min":[-0.02187499962747097,-0.015625,-0.140625],"type":"VEC3"},{"bufferView":53,"componentType":5126,"count":24,"max":[1,1,1],"min":[-1,-1,-1],"type":"VEC3"},{"bufferView":54,"componentType":5126,"count":24,"max":[0.249755859375,0.749755859375],"min":[0.000244140625,0.500244140625],"type":"VEC2"},{"bufferView":55,"componentType":5123,"count":36,"max":[23],"min":[0],"type":"SCALAR"},{"bufferView":56,"componentType":5126,"count":24,"max":[0.0062500000931322575,0.75,0.125],"min":[-0.24375000596046448,0,-0.125],"type":"VEC3"},{"bufferView":57,"componentType":5126,"count":24,"max":[1,1,1],"min":[-1,-1,-1],"type":"VEC3"},{"bufferView":58,"componentType":5126,"count":24,"max":[0.499755859375,0.999755859375],"min":[0.250244140625,0.750244140625],"type":"VEC2"},{"bufferView":59,"componentType":5123,"count":36,"max":[23],"min":[0],"type":"SCALAR"},{"bufferView":60,"componentType":5126,"count":24,"max":[0.02187499962747097,0.765625,0.140625],"min":[-0.2593750059604645,-0.015625,-0.140625],"type":"VEC3"},{"bufferView":61,"componentType":5126,"count":24,"max":[1,1,1],"min":[-1,-1,-1],"type":"VEC3"},{"bufferView":62,"componentType":5126,"count":24,"max":[0.249755859375,0.999755859375],"min":[0.000244140625,0.750244140625],"type":"VEC2"},{"bufferView":63,"componentType":5123,"count":36,"max":[23],"min":[0],"type":"SCALAR"},{"bufferView":64,"componentType":5126,"count":1,"max":[0],"min":[0],"type":"SCALAR"},{"bufferView":65,"componentType":5126,"count":1,"max":[-0.125,0.1875,-0.25],"min":[-0.125,0.1875,-0.25],"type":"VEC3"},{"bufferView":66,"componentType":5126,"count":5,"max":[0.2916699945926666],"min":[0],"type":"SCALAR"},{"bufferView":67,"componentType":5126,"count":5,"max":[1,1,1],"min":[1,0,1],"type":"VEC3"},{"bufferView":68,"componentType":5126,"count":1,"max":[0],"min":[0],"type":"SCALAR"},{"bufferView":69,"componentType":5126,"count":1,"max":[0.125,0.1875,-0.25],"min":[0.125,0.1875,-0.25],"type":"VEC3"},{"bufferView":70,"componentType":5126,"count":5,"max":[0.2916699945926666],"min":[0],"type":"SCALAR"},{"bufferView":71,"componentType":5126,"count":5,"max":[1,1,1],"min":[1,0,1],"type":"VEC3"},{"bufferView":72,"componentType":5126,"count":1,"max":[0],"min":[0],"type":"SCALAR"},{"bufferView":73,"componentType":5126,"count":1,"max":[-0.125,0.125,-0.25],"min":[-0.125,0.125,-0.25],"type":"VEC3"},{"bufferView":74,"componentType":5126,"count":6,"max":[8.875],"min":[0],"type":"SCALAR"},{"bufferView":75,"componentType":5126,"count":6,"max":[1,1,1],"min":[1,0,1],"type":"VEC3"},{"bufferView":76,"componentType":5126,"count":1,"max":[0],"min":[0],"type":"SCALAR"},{"bufferView":77,"componentType":5126,"count":1,"max":[0.125,0.125,-0.25],"min":[0.125,0.125,-0.25],"type":"VEC3"},{"bufferView":78,"componentType":5126,"count":5,"max":[0.2916699945926666],"min":[0],"type":"SCALAR"},{"bufferView":79,"componentType":5126,"count":5,"max":[1,1,1],"min":[1,0,1],"type":"VEC3"},{"bufferView":80,"componentType":5126,"count":4,"max":[1.3333333730697632],"min":[0],"type":"SCALAR"},{"bufferView":81,"componentType":5126,"count":4,"max":[0.3826834261417389,0,0,1],"min":[-0.40274667739868164,0,0,0.9153114557266235],"type":"VEC4"},{"bufferView":82,"componentType":5126,"count":4,"max":[1.3333333730697632],"min":[0],"type":"SCALAR"},{"bufferView":83,"componentType":5126,"count":4,"max":[0.40595880150794983,0.14976602792739868,0.06698964536190033,1],"min":[-0.3690880835056305,-0.012741624377667904,-0.059573620557785034,0.8995657563209534],"type":"VEC4"},{"bufferView":84,"componentType":5126,"count":4,"max":[1.3333333730697632],"min":[0],"type":"SCALAR"},{"bufferView":85,"componentType":5126,"count":4,"max":[0.4226182699203491,0,0,1],"min":[-0.4226182699203491,0,0,0.9063078165054321],"type":"VEC4"},{"bufferView":86,"componentType":5126,"count":4,"max":[1.3333333730697632],"min":[0],"type":"SCALAR"},{"bufferView":87,"componentType":5126,"count":4,"max":[0.44228869676589966,0.07626699656248093,0,1],"min":[-0.41380205750465393,0,-0.09482750296592712,0.8968727588653564],"type":"VEC4"}],"materials":[{"pbrMetallicRoughness":{"metallicFactor":0,"roughnessFactor":1,"baseColorTexture":{"index":0}},"alphaMode":"MASK","alphaCutoff":0.05,"doubleSided":true}],"textures":[{"sampler":0,"source":0,"name":"Modium.png"}],"samplers":[{"magFilter":9728,"minFilter":9728,"wrapS":33071,"wrapT":33071}],"images":[{"mimeType":"image/png","uri":"data:image/png;base64,"}],"meshes":[{"primitives":[{"mode":4,"attributes":{"POSITION":0,"NORMAL":1,"TEXCOORD_0":2},"indices":3,"material":0}]},{"primitives":[{"mode":4,"attributes":{"POSITION":4,"NORMAL":5,"TEXCOORD_0":6},"indices":7,"material":0}]},{"primitives":[{"mode":4,"attributes":{"POSITION":8,"NORMAL":9,"TEXCOORD_0":10},"indices":11,"material":0}]},{"primitives":[{"mode":4,"attributes":{"POSITION":12,"NORMAL":13,"TEXCOORD_0":14},"indices":15,"material":0}]},{"primitives":[{"mode":4,"attributes":{"POSITION":16,"NORMAL":17,"TEXCOORD_0":18},"indices":19,"material":0}]},{"primitives":[{"mode":4,"attributes":{"POSITION":20,"NORMAL":21,"TEXCOORD_0":22},"indices":23,"material":0}]},{"primitives":[{"mode":4,"attributes":{"POSITION":24,"NORMAL":25,"TEXCOORD_0":26},"indices":27,"material":0}]},{"primitives":[{"mode":4,"attributes":{"POSITION":28,"NORMAL":29,"TEXCOORD_0":30},"indices":31,"material":0}]},{"primitives":[{"mode":4,"attributes":{"POSITION":32,"NORMAL":33,"TEXCOORD_0":34},"indices":35,"material":0}]},{"primitives":[{"mode":4,"attributes":{"POSITION":36,"NORMAL":37,"TEXCOORD_0":38},"indices":39,"material":0}]},{"primitives":[{"mode":4,"attributes":{"POSITION":40,"NORMAL":41,"TEXCOORD_0":42},"indices":43,"material":0}]},{"primitives":[{"mode":4,"attributes":{"POSITION":44,"NORMAL":45,"TEXCOORD_0":46},"indices":47,"material":0}]},{"primitives":[{"mode":4,"attributes":{"POSITION":48,"NORMAL":49,"TEXCOORD_0":50},"indices":51,"material":0}]},{"primitives":[{"mode":4,"attributes":{"POSITION":52,"NORMAL":53,"TEXCOORD_0":54},"indices":55,"material":0}]},{"primitives":[{"mode":4,"attributes":{"POSITION":56,"NORMAL":57,"TEXCOORD_0":58},"indices":59,"material":0}]},{"primitives":[{"mode":4,"attributes":{"POSITION":60,"NORMAL":61,"TEXCOORD_0":62},"indices":63,"material":0}]}],"animations":[{"name":"modium","samplers":[{"input":64,"output":65,"interpolation":"LINEAR"},{"input":66,"output":67,"interpolation":"LINEAR"},{"input":68,"output":69,"interpolation":"LINEAR"},{"input":70,"output":71,"interpolation":"LINEAR"},{"input":72,"output":73,"interpolation":"LINEAR"},{"input":74,"output":75,"interpolation":"LINEAR"},{"input":76,"output":77,"interpolation":"LINEAR"},{"input":78,"output":79,"interpolation":"LINEAR"}],"channels":[{"sampler":0,"target":{"node":3,"path":"translation"}},{"sampler":1,"target":{"node":3,"path":"scale"}},{"sampler":2,"target":{"node":7,"path":"translation"}},{"sampler":3,"target":{"node":7,"path":"scale"}},{"sampler":4,"target":{"node":5,"path":"translation"}},{"sampler":5,"target":{"node":5,"path":"scale"}},{"sampler":6,"target":{"node":9,"path":"translation"}},{"sampler":7,"target":{"node":9,"path":"scale"}}]},{"name":"walk","samplers":[{"input":80,"output":81,"interpolation":"LINEAR"},{"input":82,"output":83,"interpolation":"LINEAR"},{"input":84,"output":85,"interpolation":"LINEAR"},{"input":86,"output":87,"interpolation":"LINEAR"}],"channels":[{"sampler":0,"target":{"node":16,"path":"rotation"}},{"sampler":1,"target":{"node":19,"path":"rotation"}},{"sampler":2,"target":{"node":22,"path":"rotation"}},{"sampler":3,"target":{"node":25,"path":"rotation"}}]}]}